<?xml version="1.0" encoding="utf-8"?>
<!-- Generator: Adobe Illustrator 25.0.0, SVG Export Plug-In . SVG Version: 6.00 Build 0)  -->
<svg version="1.1" id="Layer_1" xmlns="http://www.w3.org/2000/svg" xmlns:xlink="http://www.w3.org/1999/xlink" x="0px" y="0px"
	 viewBox="0 0 1920 1080" style="enable-background:new 0 0 1920 1080;" xml:space="preserve">
<style type="text/css">
	.st0{fill:#8918D1;}
	.st1{fill:#450C67;}
	.st2{fill:#FFFFFF;}
</style>
<rect x="-1940" y="-1100" class="st0" width="1920" height="1080"/>
<rect x="1940" y="-1100" class="st1" width="1920" height="1080"/>
<g>
	<g>
		<g>
			<g>
				<path class="st1" d="M720.27-599.32c1.99-0.94,4.33-1.4,7.02-1.4h13.75v-8.5h-13.46c-4.32,0-8.09,0.88-11.28,2.63
					s-5.68,4.14-7.45,7.16c-1.78,3.03-2.67,6.56-2.67,10.59c0,3.56,0.8,6.69,2.38,9.4c1.58,2.71,3.73,4.83,6.45,6.34
					c2.71,1.51,5.74,2.27,9.11,2.27c2.74,0,5.33-0.66,7.78-1.98c1.52-0.82,2.89-1.87,4.13-3.16c0.76-0.79,1.47-1.67,2.13-2.64
					l-1.01-7.57c-0.49,0.82-1.04,1.57-1.65,2.26c-0.97,1.12-2.11,2.06-3.39,2.82c-2.06,1.23-4.41,1.84-7.05,1.84
					c-2.26,0-4.23-0.43-5.91-1.3c-1.68-0.86-2.97-2.06-3.86-3.6c-0.88-1.54-1.33-3.24-1.33-5.11c0-2.31,0.55-4.32,1.66-6.05
					C716.72-597.05,718.27-598.38,720.27-599.32z M725.09-632.42c-0.89-0.86-1.98-1.29-3.28-1.29c-1.34,0-2.44,0.43-3.31,1.29
					c-0.87,0.87-1.3,1.93-1.3,3.18c0,1.2,0.43,2.23,1.3,3.09c0.87,0.87,1.97,1.3,3.31,1.3c1.3,0,2.39-0.43,3.28-1.3
					c0.89-0.86,1.33-1.89,1.33-3.09C726.42-630.49,725.98-631.55,725.09-632.42z M736.83-632.38c-0.89-0.84-2-1.26-3.35-1.26
					c-1.25,0-2.32,0.42-3.2,1.26c-0.89,0.84-1.34,1.89-1.34,3.14c0,1.2,0.45,2.23,1.34,3.09c0.88,0.87,1.95,1.3,3.2,1.3
					c1.35,0,2.46-0.43,3.35-1.3c0.89-0.86,1.33-1.89,1.33-3.09C738.16-630.49,737.72-631.54,736.83-632.38z M743.57-579.84v-36.51
					h-8.07v36.01c0,1.71,0.18,3.16,0.53,4.37c0.12,0.42,0.27,0.82,0.44,1.18c0.65,1.39,1.66,2.4,3.02,3.02
					c1.37,0.62,3.11,0.94,5.23,0.94h7.2v-9.01H743.57z"/>
				<path class="st1" d="M753.47-578.68c-0.46-0.77-0.97-1.16-1.55-1.16c-0.53,0-1.01,0.39-1.44,1.16
					c-0.43,0.77-0.65,1.94-0.65,3.53c0,1.44,0.22,2.52,0.65,3.24c0.43,0.72,0.91,1.08,1.44,1.08c0.58,0,1.09-0.36,1.55-1.08
					c0.46-0.72,0.68-1.8,0.68-3.24C754.15-576.74,753.93-577.91,753.47-578.68z M751.92-579.84v9.01h110.81v-9.01H751.92z"/>
				<path class="st1" d="M864.28-578.68c-0.46-0.77-0.97-1.16-1.55-1.16c-0.53,0-1.01,0.39-1.44,1.16
					c-0.43,0.77-0.65,1.94-0.65,3.53c0,1.44,0.22,2.52,0.65,3.24c0.43,0.72,0.91,1.08,1.44,1.08c0.58,0,1.09-0.36,1.55-1.08
					c0.45-0.72,0.68-1.8,0.68-3.24C864.96-576.74,864.73-577.91,864.28-578.68z M862.73-579.84v9.01h26.87v-9.01H862.73z"/>
				<path class="st1" d="M891.14-578.68c-0.45-0.77-0.97-1.16-1.54-1.16c-0.53,0-1.01,0.39-1.45,1.16
					c-0.43,0.77-0.64,1.94-0.64,3.53c0,1.44,0.21,2.52,0.64,3.24c0.44,0.72,0.92,1.08,1.45,1.08c0.57,0,1.09-0.36,1.54-1.08
					c0.46-0.72,0.69-1.8,0.69-3.24C891.83-576.74,891.6-577.91,891.14-578.68z M915.52-579.84c-2.4,0-4.4-0.8-6.01-2.41
					s-2.42-4.07-2.42-7.38v-15.56h-8.13v15.99c0,3.02-0.69,5.34-2.06,6.95c-1.36,1.61-3.46,2.41-6.3,2.41h-1v9.01h0.86
					c3.07,0,5.7-0.75,7.88-2.24c2.19-1.48,3.79-3.6,4.79-6.33c1.16,2.78,2.8,4.91,4.94,6.37c2.13,1.46,4.65,2.2,7.53,2.2h1v-9.01
					H915.52z M906.48-621.07c-0.93-0.89-2.1-1.33-3.49-1.33s-2.56,0.44-3.49,1.33c-0.94,0.89-1.41,1.98-1.41,3.28
					c0,1.29,0.47,2.4,1.41,3.31c0.93,0.91,2.1,1.37,3.49,1.37s2.56-0.46,3.49-1.37c0.94-0.91,1.41-2.02,1.41-3.31
					C907.89-619.09,907.42-620.18,906.48-621.07z"/>
				<path class="st1" d="M918.15-578.68c-0.45-0.77-0.97-1.16-1.55-1.16c-0.52,0-1,0.39-1.44,1.16c-0.43,0.77-0.64,1.94-0.64,3.53
					c0,1.44,0.21,2.52,0.64,3.24c0.44,0.72,0.92,1.08,1.44,1.08c0.58,0,1.1-0.36,1.55-1.08c0.46-0.72,0.69-1.8,0.69-3.24
					C918.84-576.74,918.61-577.91,918.15-578.68z M956.43-579.84v-22.47h-8.06v22.47h-15.13v-22.47h-8.07v22.47h-8.57v9.01h44.16
					v-9.01H956.43z M949.27-618.37c-0.89-0.86-1.98-1.3-3.28-1.3c-1.34,0-2.45,0.44-3.31,1.3c-0.87,0.86-1.3,1.92-1.3,3.17
					c0,1.2,0.43,2.23,1.3,3.09c0.86,0.87,1.97,1.3,3.31,1.3c1.3,0,2.39-0.43,3.28-1.3c0.89-0.86,1.33-1.89,1.33-3.09
					C950.6-616.45,950.16-617.51,949.27-618.37z M955.06-628.6c-0.86-0.86-1.94-1.29-3.24-1.29c-1.24,0-2.31,0.43-3.2,1.29
					c-0.89,0.87-1.33,1.88-1.33,3.03c0,1.2,0.44,2.22,1.33,3.06c0.89,0.84,1.96,1.26,3.2,1.26c1.25,0,2.32-0.42,3.21-1.26
					c0.89-0.84,1.33-1.86,1.33-3.06C956.36-626.72,955.93-627.73,955.06-628.6z M961.01-618.37c-0.89-0.86-2.01-1.3-3.35-1.3
					c-1.25,0-2.32,0.44-3.21,1.3s-1.33,1.92-1.33,3.17c0,1.2,0.44,2.23,1.33,3.09c0.89,0.87,1.96,1.3,3.21,1.3
					c1.34,0,2.46-0.43,3.35-1.3c0.89-0.86,1.33-1.89,1.33-3.09C962.34-616.45,961.9-617.51,961.01-618.37z M962.31-578.68
					c-0.46-0.77-0.98-1.16-1.55-1.16c-0.53,0-1.01,0.39-1.44,1.16c-0.43,0.77-0.65,1.94-0.65,3.53c0,1.44,0.22,2.52,0.65,3.24
					c0.43,0.72,0.91,1.08,1.44,1.08c0.57,0,1.09-0.36,1.55-1.08c0.45-0.72,0.68-1.8,0.68-3.24
					C962.99-576.74,962.76-577.91,962.31-578.68z M970.77-608.86v19.66c0,3.02-0.85,5.34-2.56,6.95c-1.7,1.61-4.04,2.41-7.02,2.41
					h-0.43v9.01h0.43c3.12,0,6.02-0.69,8.71-2.06c2.69-1.36,4.85-3.37,6.48-6.01c1.64-2.64,2.45-5.88,2.45-9.72v-20.24H970.77z"/>
			</g>
		</g>
		<g>
			<g>
				<path class="st1" d="M737.86-522.61c-1.1-1.72-2.6-3.1-4.5-4.14c-1.9-1.04-4.09-1.82-6.58-2.35l-4.2-0.96
					c-2.28-0.56-4.11-1.29-5.47-2.19c-1.36-0.9-2.04-2.25-2.04-4.05c0-1.85,0.64-3.31,1.92-4.39c1.28-1.08,3.13-1.62,5.53-1.62
					c2.48,0,4.44,0.72,5.89,2.16c1.44,1.44,2.28,3.39,2.52,5.83h7.5c-0.2-2.92-0.95-5.45-2.25-7.57s-3.1-3.77-5.4-4.95
					c-2.3-1.18-5-1.77-8.08-1.77c-3.24,0-6.01,0.57-8.29,1.71c-2.28,1.14-4.02,2.67-5.22,4.59c-1.2,1.92-1.81,4.04-1.81,6.37
					c0,2.56,0.52,4.67,1.54,6.33c1.02,1.67,2.49,3,4.41,4c1.92,1,4.16,1.8,6.73,2.4l4.08,0.96c2.68,0.6,4.65,1.4,5.89,2.4
					c1.24,1,1.86,2.46,1.86,4.38c0,2.17-0.73,3.84-2.19,5.02c-1.46,1.18-3.48,1.77-6.04,1.77c-1.68,0-3.24-0.3-4.68-0.9
					c-1.45-0.6-2.64-1.56-3.58-2.88c-0.94-1.32-1.51-3.03-1.71-5.11h-7.51c0.44,3.57,1.47,6.47,3.1,8.71
					c1.62,2.24,3.69,3.89,6.21,4.93c2.52,1.04,5.27,1.56,8.23,1.56c3.2,0,5.99-0.57,8.35-1.71c2.36-1.14,4.19-2.75,5.49-4.81
					s1.96-4.43,1.96-7.12C739.52-518.69,738.96-520.89,737.86-522.61z"/>
				<path class="st1" d="M747.38-548.01v45.04h7.21v-45.04H747.38z M750.15-529.82v6.73h25.58v-6.73H750.15z M771.28-548.01v45.04
					h7.21v-45.04H771.28z"/>
				<path class="st1" d="M808.58-548.01h-12.31l-11.9,45.04h7.51l3.72-14.96l1.56-6.3l4.26-17.12h1.84l4.38,17.12l1.61,6.3
					l3.83,14.96h7.39L808.58-548.01z M791.82-524.23v6.3h19.52v-6.3H791.82z"/>
				<path class="st1" d="M851.46-548.01v36.15h-1.61l-11.91-36.15h-11.59v45.04h6.79v-36.16h1.56l12.07,36.16h11.47v-45.04H851.46z"
					/>
				<path class="st1" d="M893.14-548.01v36.15h-1.62l-11.9-36.15h-11.59v45.04h6.79v-36.16h1.56l12.07,36.16h11.47v-45.04H893.14z"
					/>
				<path class="st1" d="M929.95-548.01h-12.32l-11.89,45.04h7.51l3.72-14.96l1.56-6.3l4.26-17.12h1.84l4.38,17.12l1.61,6.3
					l3.83,14.96h7.39L929.95-548.01z M913.19-524.23v6.3h19.52v-6.3H913.19z"/>
				<path class="st1" d="M947.72-548.01v45.04h7.21v-45.04H947.72z M950.49-529.82v6.73h25.58v-6.73H950.49z M971.62-548.01v45.04
					h7.21v-45.04H971.62z"/>
			</g>
		</g>
	</g>
	<g>
		<g>
			<g>
				<path class="st0" d="M1213.66-561.91c-0.97,13.13-6.7,25.51-16.12,34.86c-0.84,0.83-1.7,1.63-2.58,2.4
					c-0.23,0.2-0.45,0.39-0.68,0.58c-2.87,2.44-5.95,4.55-9.2,6.31c-0.22,0.12-0.46,0.18-0.69,0.19c-0.27,0.03-0.54-0.02-0.8-0.13
					c-0.53-0.22-0.91-0.67-1.06-1.22c-1.13-4.09-2.79-8.01-4.92-11.67c-0.52-0.89-0.21-2.02,0.7-2.55c2.72-1.62,5.27-3.6,7.59-5.93
					c0.12-0.12,0.24-0.24,0.36-0.37c0.12-0.11,0.23-0.22,0.33-0.34c14.22-14.95,13.99-38.67-0.69-53.35
					c-0.94-0.94-1.92-1.82-2.94-2.65c-0.09-0.08-0.19-0.16-0.29-0.23c-4.35-3.48-9.38-5.94-14.76-7.22l-1.27-0.31l-0.17-0.04
					l-0.09,0.3l-0.31,1.11c-1.64,5.34-4.22,10.31-7.71,14.79c-0.12,0.15-0.25,0.27-0.4,0.37c-0.24,0.16-0.52,0.27-0.83,0.29
					c-0.5,0.04-1-0.12-1.37-0.46l-9.82-8.79c-0.6-0.54-0.75-1.4-0.39-2.13c0.04-0.11,0.11-0.22,0.18-0.32
					c0.85-1.16,1.6-2.39,2.26-3.65c1.8-3.42,2.91-7.17,3.27-11.01c0.01-0.09,0.02-0.18,0.03-0.27c0.11-1.03,0.13-1.95,0.13-2.71
					v-0.09c0-0.49-0.01-0.97-0.04-1.46c-0.04-0.81-0.11-1.62-0.21-2.41c-1.55-11.75-9.89-21.4-20.92-24.85
					c-0.46-0.14-0.91-0.27-1.38-0.39c-0.48-0.13-0.96-0.24-1.45-0.34c-1.7-0.35-3.45-0.56-5.25-0.62c-0.17-0.01-0.35-0.01-0.52-0.01
					h-0.35c-9.01,0-17.47,3.97-23.21,10.91c-0.56,0.68-1.53,0.87-2.28,0.44c-3.81-2.19-7.9-3.84-12.16-4.95
					c-0.57-0.14-1.01-0.54-1.22-1.09c-0.07-0.18-0.11-0.38-0.11-0.56c-0.02-0.18,0-0.36,0.05-0.53c0.05-0.21,0.14-0.4,0.27-0.58
					c8.75-12.76,23.2-20.37,38.66-20.37h0.35c0.26,0,0.53,0,0.79,0.01c5.25,0.13,10.31,1.13,15.01,2.86
					c1.08,0.38,2.13,0.82,3.17,1.29c1.38,0.62,2.73,1.31,4.03,2.07c0.32,0.18,0.65,0.38,0.97,0.57l0.96,0.6
					c0.31,0.2,0.63,0.41,0.94,0.62c0.01,0,0.01,0.01,0.02,0.01c0.58,0.4,1.15,0.8,1.71,1.21c0.04,0.03,0.07,0.06,0.1,0.08
					c0.6,0.45,1.19,0.92,1.77,1.39c0.29,0.24,0.57,0.48,0.86,0.73c0.56,0.49,1.12,0.99,1.66,1.51c0.27,0.25,0.54,0.52,0.8,0.78
					c1.37,1.37,2.65,2.82,3.83,4.34c0.39,0.5,0.77,1.01,1.15,1.53c0.22,0.31,0.44,0.62,0.64,0.93c0.2,0.29,0.39,0.58,0.58,0.87
					c0.57,0.89,1.11,1.79,1.63,2.72c0.17,0.31,0.34,0.62,0.5,0.93c2.63,5,4.39,10.56,5.06,16.47l0.11,0.95l0.02,0.2l0.24,0.04
					l0.91,0.17c5.37,0.98,10.55,2.77,15.4,5.33c1.88,1,3.71,2.11,5.46,3.32c0.04,0.02,0.07,0.05,0.11,0.07
					c2.72,1.89,5.27,4.03,7.62,6.39C1209.19-593.48,1214.86-578.19,1213.66-561.91z"/>
				<path class="st0" d="M1147.73-463.29c-14.22,8.28-32.67,8.34-46.98,0.14c-13.22-7.59-22.22-21.82-23.47-37.15
					c-0.04-0.49,0.13-0.97,0.46-1.34c0.35-0.37,0.82-0.58,1.33-0.58h13.22c0.9,0,1.67,0.7,1.78,1.62
					c1.59,12.91,11.86,24.03,24.42,26.43c13.8,2.65,28.59-5.49,33.71-18.51c2.41-6.13,2.43-13.04,0.52-19.37
					c-2.1-6.99-6.56-13.28-12.75-17.04c-7.86-4.77-17.32-5.52-24.87-5.53h-1.03c-5.34,0.02-10.74,0.33-15.98,0.63l-0.39,0.02
					c-5.69,0.32-11.56,0.65-17.31,0.59c-13.15-0.13-23.57-2.44-31.86-7.04c-9.72-5.41-17.33-14.66-20.89-25.39
					c-1.62-4.85-2.41-10-2.36-15.3c0.14-13.69,6.61-26.7,17.74-35.73c9.55-7.75,21.32-11.49,32.94-10.61
					c1.79,0.13,3.58,0.37,5.35,0.73c3.75,0.75,7.37,2.02,10.78,3.73c10.33,5.13,18.78,14.22,23.3,24.92
					c1.6,3.78,2.71,7.77,3.23,11.86c0.09,0.67,0.17,1.35,0.22,2.02c0.03,0.5-0.14,0.97-0.47,1.34c-0.34,0.37-0.83,0.59-1.33,0.59
					l-9.55-0.01l-3.61-0.01c-0.91,0-1.67-0.7-1.78-1.63c-1.25-10.89-8.51-20.58-18.51-24.71c-2.78-1.14-5.71-1.82-8.69-2.06
					c-8.82-0.71-17.96,2.41-24.21,8.72c-8.39,8.44-11.02,21.99-6.4,32.95c2.53,6.04,7,11.05,12.58,14.11
					c4.56,2.52,9.96,3.87,17.48,4.43c8.06,0.58,16.18,0.17,24.03-0.22c3.1-0.16,5.98-0.3,8.8-0.39c1.23-0.04,2.45-0.07,3.67-0.09
					c5.31-0.1,10.04,0.08,14.34,0.55c4.16,0.45,7.92,1.17,11.44,2.17c3.17,0.88,6.19,2.05,8.97,3.44c7.32,3.67,13.5,9.46,17.96,16.4
					c0.05,0.08,0.11,0.17,0.16,0.25c3.05,4.81,5.25,10.16,6.41,15.72c0.53,2.58,0.85,5.19,0.91,7.82
					C1171.44-488.3,1162.08-471.61,1147.73-463.29z"/>
			</g>
		</g>
	</g>
</g>
<g>
	<g>
		<g>
			<g>
				<path class="st2" d="M-1219.73-599.32c1.99-0.94,4.33-1.4,7.02-1.4h13.75v-8.5h-13.46c-4.32,0-8.09,0.88-11.28,2.63
					c-3.19,1.75-5.68,4.14-7.45,7.16c-1.78,3.03-2.67,6.56-2.67,10.59c0,3.56,0.8,6.69,2.38,9.4c1.58,2.71,3.73,4.83,6.45,6.34
					c2.71,1.51,5.74,2.27,9.11,2.27c2.74,0,5.33-0.66,7.78-1.98c1.52-0.82,2.89-1.87,4.13-3.16c0.76-0.79,1.47-1.67,2.13-2.64
					l-1.01-7.57c-0.49,0.82-1.04,1.57-1.65,2.26c-0.97,1.12-2.11,2.06-3.39,2.82c-2.06,1.23-4.41,1.84-7.05,1.84
					c-2.26,0-4.23-0.43-5.91-1.3c-1.68-0.86-2.97-2.06-3.86-3.6c-0.88-1.54-1.33-3.24-1.33-5.11c0-2.31,0.55-4.32,1.66-6.05
					C-1223.28-597.05-1221.73-598.38-1219.73-599.32z M-1214.91-632.42c-0.89-0.86-1.98-1.29-3.28-1.29c-1.34,0-2.44,0.43-3.31,1.29
					c-0.87,0.87-1.3,1.93-1.3,3.18c0,1.2,0.43,2.23,1.3,3.09c0.87,0.87,1.97,1.3,3.31,1.3c1.3,0,2.39-0.43,3.28-1.3
					c0.89-0.86,1.33-1.89,1.33-3.09C-1213.58-630.49-1214.02-631.55-1214.91-632.42z M-1203.17-632.38c-0.89-0.84-2-1.26-3.35-1.26
					c-1.25,0-2.32,0.42-3.2,1.26c-0.89,0.84-1.34,1.89-1.34,3.14c0,1.2,0.45,2.23,1.34,3.09c0.88,0.87,1.95,1.3,3.2,1.3
					c1.35,0,2.46-0.43,3.35-1.3c0.89-0.86,1.33-1.89,1.33-3.09C-1201.84-630.49-1202.28-631.54-1203.17-632.38z M-1196.43-579.84
					v-36.51h-8.07v36.01c0,1.71,0.18,3.16,0.53,4.37c0.12,0.42,0.27,0.82,0.44,1.18c0.65,1.39,1.66,2.4,3.02,3.02
					c1.37,0.62,3.11,0.94,5.23,0.94h7.2v-9.01H-1196.43z"/>
				<path class="st2" d="M-1186.53-578.68c-0.46-0.77-0.97-1.16-1.55-1.16c-0.53,0-1.01,0.39-1.44,1.16
					c-0.43,0.77-0.65,1.94-0.65,3.53c0,1.44,0.22,2.52,0.65,3.24c0.43,0.72,0.91,1.08,1.44,1.08c0.58,0,1.09-0.36,1.55-1.08
					c0.46-0.72,0.68-1.8,0.68-3.24C-1185.85-576.74-1186.07-577.91-1186.53-578.68z M-1188.08-579.84v9.01h110.81v-9.01H-1188.08z"
					/>
				<path class="st2" d="M-1075.72-578.68c-0.46-0.77-0.97-1.16-1.55-1.16c-0.53,0-1.01,0.39-1.44,1.16
					c-0.43,0.77-0.65,1.94-0.65,3.53c0,1.44,0.22,2.52,0.65,3.24c0.43,0.72,0.91,1.08,1.44,1.08c0.58,0,1.09-0.36,1.55-1.08
					c0.45-0.72,0.68-1.8,0.68-3.24C-1075.04-576.74-1075.27-577.91-1075.72-578.68z M-1077.27-579.84v9.01h26.87v-9.01H-1077.27z"/>
				<path class="st2" d="M-1048.86-578.68c-0.45-0.77-0.97-1.16-1.54-1.16c-0.53,0-1.01,0.39-1.45,1.16
					c-0.43,0.77-0.64,1.94-0.64,3.53c0,1.44,0.21,2.52,0.64,3.24c0.44,0.72,0.92,1.08,1.45,1.08c0.57,0,1.09-0.36,1.54-1.08
					c0.46-0.72,0.69-1.8,0.69-3.24C-1048.17-576.74-1048.4-577.91-1048.86-578.68z M-1024.48-579.84c-2.4,0-4.4-0.8-6.01-2.41
					s-2.42-4.07-2.42-7.38v-15.56h-8.13v15.99c0,3.02-0.69,5.34-2.06,6.95c-1.36,1.61-3.46,2.41-6.3,2.41h-1v9.01h0.86
					c3.07,0,5.7-0.75,7.88-2.24c2.19-1.48,3.79-3.6,4.79-6.33c1.16,2.78,2.8,4.91,4.94,6.37c2.13,1.46,4.65,2.2,7.53,2.2h1v-9.01
					H-1024.48z M-1033.52-621.07c-0.93-0.89-2.1-1.33-3.49-1.33s-2.56,0.44-3.49,1.33c-0.94,0.89-1.41,1.98-1.41,3.28
					c0,1.29,0.47,2.4,1.41,3.31c0.93,0.91,2.1,1.37,3.49,1.37s2.56-0.46,3.49-1.37c0.94-0.91,1.41-2.02,1.41-3.31
					C-1032.11-619.09-1032.58-620.18-1033.52-621.07z"/>
				<path class="st2" d="M-1021.85-578.68c-0.45-0.77-0.97-1.16-1.55-1.16c-0.52,0-1,0.39-1.44,1.16c-0.43,0.77-0.64,1.94-0.64,3.53
					c0,1.44,0.21,2.52,0.64,3.24c0.44,0.72,0.92,1.08,1.44,1.08c0.58,0,1.1-0.36,1.55-1.08c0.46-0.72,0.69-1.8,0.69-3.24
					C-1021.16-576.74-1021.39-577.91-1021.85-578.68z M-983.57-579.84v-22.47h-8.06v22.47h-15.13v-22.47h-8.07v22.47h-8.57v9.01
					h44.16v-9.01H-983.57z M-990.73-618.37c-0.89-0.86-1.98-1.3-3.28-1.3c-1.34,0-2.45,0.44-3.31,1.3c-0.87,0.86-1.3,1.92-1.3,3.17
					c0,1.2,0.43,2.23,1.3,3.09c0.86,0.87,1.97,1.3,3.31,1.3c1.3,0,2.39-0.43,3.28-1.3c0.89-0.86,1.33-1.89,1.33-3.09
					C-989.4-616.45-989.84-617.51-990.73-618.37z M-984.94-628.6c-0.86-0.86-1.94-1.29-3.24-1.29c-1.24,0-2.31,0.43-3.2,1.29
					c-0.89,0.87-1.33,1.88-1.33,3.03c0,1.2,0.44,2.22,1.33,3.06c0.89,0.84,1.96,1.26,3.2,1.26c1.25,0,2.32-0.42,3.21-1.26
					c0.89-0.84,1.33-1.86,1.33-3.06C-983.64-626.72-984.07-627.73-984.94-628.6z M-978.99-618.37c-0.89-0.86-2.01-1.3-3.35-1.3
					c-1.25,0-2.32,0.44-3.21,1.3s-1.33,1.92-1.33,3.17c0,1.2,0.44,2.23,1.33,3.09c0.89,0.87,1.96,1.3,3.21,1.3
					c1.34,0,2.46-0.43,3.35-1.3c0.89-0.86,1.33-1.89,1.33-3.09C-977.66-616.45-978.1-617.51-978.99-618.37z M-977.69-578.68
					c-0.46-0.77-0.98-1.16-1.55-1.16c-0.53,0-1.01,0.39-1.44,1.16c-0.43,0.77-0.65,1.94-0.65,3.53c0,1.44,0.22,2.52,0.65,3.24
					c0.43,0.72,0.91,1.08,1.44,1.08c0.57,0,1.09-0.36,1.55-1.08c0.45-0.72,0.68-1.8,0.68-3.24
					C-977.01-576.74-977.24-577.91-977.69-578.68z M-969.23-608.86v19.66c0,3.02-0.85,5.34-2.56,6.95c-1.7,1.61-4.04,2.41-7.02,2.41
					h-0.43v9.01h0.43c3.12,0,6.02-0.69,8.71-2.06c2.69-1.36,4.85-3.37,6.48-6.01c1.64-2.64,2.45-5.88,2.45-9.72v-20.24H-969.23z"/>
			</g>
		</g>
		<g>
			<g>
				<path class="st2" d="M-1202.14-522.61c-1.1-1.72-2.6-3.1-4.5-4.14s-4.09-1.82-6.58-2.35l-4.2-0.96
					c-2.28-0.56-4.11-1.29-5.47-2.19c-1.36-0.9-2.04-2.25-2.04-4.05c0-1.85,0.64-3.31,1.92-4.39c1.28-1.08,3.13-1.62,5.53-1.62
					c2.48,0,4.44,0.72,5.89,2.16c1.44,1.44,2.28,3.39,2.52,5.83h7.5c-0.2-2.92-0.95-5.45-2.25-7.57c-1.3-2.12-3.1-3.77-5.4-4.95
					c-2.3-1.18-5-1.77-8.08-1.77c-3.24,0-6.01,0.57-8.29,1.71c-2.28,1.14-4.02,2.67-5.22,4.59c-1.2,1.92-1.81,4.04-1.81,6.37
					c0,2.56,0.52,4.67,1.54,6.33c1.02,1.67,2.49,3,4.41,4c1.92,1,4.16,1.8,6.73,2.4l4.08,0.96c2.68,0.6,4.65,1.4,5.89,2.4
					s1.86,2.46,1.86,4.38c0,2.17-0.73,3.84-2.19,5.02c-1.46,1.18-3.48,1.77-6.04,1.77c-1.68,0-3.24-0.3-4.68-0.9
					c-1.45-0.6-2.64-1.56-3.58-2.88c-0.94-1.32-1.51-3.03-1.71-5.11h-7.51c0.44,3.57,1.47,6.47,3.1,8.71
					c1.62,2.24,3.69,3.89,6.21,4.93c2.52,1.04,5.27,1.56,8.23,1.56c3.2,0,5.99-0.57,8.35-1.71c2.36-1.14,4.19-2.75,5.49-4.81
					c1.3-2.06,1.96-4.43,1.96-7.12C-1200.48-518.69-1201.04-520.89-1202.14-522.61z"/>
				<path class="st2" d="M-1192.62-548.01v45.04h7.21v-45.04H-1192.62z M-1189.85-529.82v6.73h25.58v-6.73H-1189.85z
					 M-1168.72-548.01v45.04h7.21v-45.04H-1168.72z"/>
				<path class="st2" d="M-1131.42-548.01h-12.31l-11.9,45.04h7.51l3.72-14.96l1.56-6.3l4.26-17.12h1.84l4.38,17.12l1.61,6.3
					l3.83,14.96h7.39L-1131.42-548.01z M-1148.18-524.23v6.3h19.52v-6.3H-1148.18z"/>
				<path class="st2" d="M-1088.54-548.01v36.15h-1.61l-11.91-36.15h-11.59v45.04h6.79v-36.16h1.56l12.07,36.16h11.47v-45.04
					H-1088.54z"/>
				<path class="st2" d="M-1046.86-548.01v36.15h-1.62l-11.9-36.15h-11.59v45.04h6.79v-36.16h1.56l12.07,36.16h11.47v-45.04
					H-1046.86z"/>
				<path class="st2" d="M-1010.05-548.01h-12.32l-11.89,45.04h7.51l3.72-14.96l1.56-6.3l4.26-17.12h1.84l4.38,17.12l1.61,6.3
					l3.83,14.96h7.39L-1010.05-548.01z M-1026.81-524.23v6.3h19.52v-6.3H-1026.81z"/>
				<path class="st2" d="M-992.28-548.01v45.04h7.21v-45.04H-992.28z M-989.51-529.82v6.73h25.58v-6.73H-989.51z M-968.38-548.01
					v45.04h7.21v-45.04H-968.38z"/>
			</g>
		</g>
	</g>
	<g>
		<g>
			<g>
				<path class="st2" d="M-726.34-561.91c-0.97,13.13-6.7,25.51-16.12,34.86c-0.84,0.83-1.7,1.63-2.58,2.4
					c-0.23,0.2-0.45,0.39-0.68,0.58c-2.87,2.44-5.95,4.55-9.2,6.31c-0.22,0.12-0.46,0.18-0.69,0.19c-0.27,0.03-0.54-0.02-0.8-0.13
					c-0.53-0.22-0.91-0.67-1.06-1.22c-1.13-4.09-2.79-8.01-4.92-11.67c-0.52-0.89-0.21-2.02,0.7-2.55c2.72-1.62,5.27-3.6,7.59-5.93
					c0.12-0.12,0.24-0.24,0.36-0.37c0.12-0.11,0.23-0.22,0.33-0.34c14.22-14.95,13.99-38.67-0.69-53.35
					c-0.94-0.94-1.92-1.82-2.94-2.65c-0.09-0.08-0.19-0.16-0.29-0.23c-4.35-3.48-9.38-5.94-14.76-7.22l-1.27-0.31l-0.17-0.04
					l-0.09,0.3l-0.31,1.11c-1.64,5.34-4.22,10.31-7.71,14.79c-0.12,0.15-0.25,0.27-0.4,0.37c-0.24,0.16-0.52,0.27-0.83,0.29
					c-0.5,0.04-1-0.12-1.37-0.46l-9.82-8.79c-0.6-0.54-0.75-1.4-0.39-2.13c0.04-0.11,0.11-0.22,0.18-0.32
					c0.85-1.16,1.6-2.39,2.26-3.65c1.8-3.42,2.91-7.17,3.27-11.01c0.01-0.09,0.02-0.18,0.03-0.27c0.11-1.03,0.13-1.95,0.13-2.71
					v-0.09c0-0.49-0.01-0.97-0.04-1.46c-0.04-0.81-0.11-1.62-0.21-2.41c-1.55-11.75-9.89-21.4-20.92-24.85
					c-0.46-0.14-0.91-0.27-1.38-0.39c-0.48-0.13-0.96-0.24-1.45-0.34c-1.7-0.35-3.45-0.56-5.25-0.62c-0.17-0.01-0.35-0.01-0.52-0.01
					h-0.35c-9.01,0-17.47,3.97-23.21,10.91c-0.56,0.68-1.53,0.87-2.28,0.44c-3.81-2.19-7.9-3.84-12.16-4.95
					c-0.57-0.14-1.01-0.54-1.22-1.09c-0.07-0.18-0.11-0.38-0.11-0.56c-0.02-0.18,0-0.36,0.05-0.53c0.05-0.21,0.14-0.4,0.27-0.58
					c8.75-12.76,23.2-20.37,38.66-20.37h0.35c0.26,0,0.53,0,0.79,0.01c5.25,0.13,10.31,1.13,15.01,2.86
					c1.08,0.38,2.13,0.82,3.17,1.29c1.38,0.62,2.73,1.31,4.03,2.07c0.32,0.18,0.65,0.38,0.97,0.57l0.96,0.6
					c0.31,0.2,0.63,0.41,0.94,0.62c0.01,0,0.01,0.01,0.02,0.01c0.58,0.4,1.15,0.8,1.71,1.21c0.04,0.03,0.07,0.06,0.1,0.08
					c0.6,0.45,1.19,0.92,1.77,1.39c0.29,0.24,0.57,0.48,0.86,0.73c0.56,0.49,1.12,0.99,1.66,1.51c0.27,0.25,0.54,0.52,0.8,0.78
					c1.37,1.37,2.65,2.82,3.83,4.34c0.39,0.5,0.77,1.01,1.15,1.53c0.22,0.31,0.44,0.62,0.64,0.93c0.2,0.29,0.39,0.58,0.58,0.87
					c0.57,0.89,1.11,1.79,1.63,2.72c0.17,0.31,0.34,0.62,0.5,0.93c2.63,5,4.39,10.56,5.06,16.47l0.11,0.95l0.02,0.2l0.24,0.04
					l0.91,0.17c5.37,0.98,10.55,2.77,15.4,5.33c1.88,1,3.71,2.11,5.46,3.32c0.04,0.02,0.07,0.05,0.11,0.07
					c2.72,1.89,5.27,4.03,7.62,6.39C-730.81-593.48-725.14-578.19-726.34-561.91z"/>
				<path class="st2" d="M-792.27-463.29c-14.22,8.28-32.67,8.34-46.98,0.14c-13.22-7.59-22.22-21.82-23.47-37.15
					c-0.04-0.49,0.13-0.97,0.46-1.34c0.35-0.37,0.82-0.58,1.33-0.58h13.22c0.9,0,1.67,0.7,1.78,1.62
					c1.59,12.91,11.86,24.03,24.42,26.43c13.8,2.65,28.59-5.49,33.71-18.51c2.41-6.13,2.43-13.04,0.52-19.37
					c-2.1-6.99-6.56-13.28-12.75-17.04c-7.86-4.77-17.32-5.52-24.87-5.53h-1.03c-5.34,0.02-10.74,0.33-15.98,0.63l-0.39,0.02
					c-5.69,0.32-11.56,0.65-17.31,0.59c-13.15-0.13-23.57-2.44-31.86-7.04c-9.72-5.41-17.33-14.66-20.89-25.39
					c-1.62-4.85-2.41-10-2.36-15.3c0.14-13.69,6.61-26.7,17.74-35.73c9.55-7.75,21.32-11.49,32.94-10.61
					c1.79,0.13,3.58,0.37,5.35,0.73c3.75,0.75,7.37,2.02,10.78,3.73c10.33,5.13,18.78,14.22,23.3,24.92
					c1.6,3.78,2.71,7.77,3.23,11.86c0.09,0.67,0.17,1.35,0.22,2.02c0.03,0.5-0.14,0.97-0.47,1.34c-0.34,0.37-0.83,0.59-1.33,0.59
					l-9.55-0.01l-3.61-0.01c-0.91,0-1.67-0.7-1.78-1.63c-1.25-10.89-8.51-20.58-18.51-24.71c-2.78-1.14-5.71-1.82-8.69-2.06
					c-8.82-0.71-17.96,2.41-24.21,8.72c-8.39,8.44-11.02,21.99-6.4,32.95c2.53,6.04,7,11.05,12.58,14.11
					c4.56,2.52,9.96,3.87,17.48,4.43c8.06,0.58,16.18,0.17,24.03-0.22c3.1-0.16,5.98-0.3,8.8-0.39c1.23-0.04,2.45-0.07,3.67-0.09
					c5.31-0.1,10.04,0.08,14.34,0.55c4.16,0.45,7.92,1.17,11.44,2.17c3.17,0.88,6.19,2.05,8.97,3.44c7.32,3.67,13.5,9.46,17.96,16.4
					c0.05,0.08,0.11,0.17,0.16,0.25c3.05,4.81,5.25,10.16,6.41,15.72c0.53,2.58,0.85,5.19,0.91,7.82
					C-768.56-488.3-777.92-471.61-792.27-463.29z"/>
			</g>
		</g>
	</g>
</g>
<g>
	<g>
		<g>
			<g>
				<path class="st2" d="M2660.27-599.32c1.99-0.94,4.33-1.4,7.02-1.4h13.75v-8.5h-13.46c-4.32,0-8.09,0.88-11.28,2.63
					c-3.19,1.75-5.68,4.14-7.45,7.16c-1.78,3.03-2.67,6.56-2.67,10.59c0,3.56,0.8,6.69,2.38,9.4c1.58,2.71,3.73,4.83,6.45,6.34
					c2.71,1.51,5.74,2.27,9.11,2.27c2.74,0,5.33-0.66,7.78-1.98c1.52-0.82,2.89-1.87,4.13-3.16c0.76-0.79,1.47-1.67,2.13-2.64
					l-1.01-7.57c-0.49,0.82-1.04,1.57-1.65,2.26c-0.97,1.12-2.11,2.06-3.39,2.82c-2.06,1.23-4.41,1.84-7.05,1.84
					c-2.26,0-4.23-0.43-5.91-1.3c-1.68-0.86-2.97-2.06-3.86-3.6c-0.88-1.54-1.33-3.24-1.33-5.11c0-2.31,0.55-4.32,1.66-6.05
					C2656.72-597.05,2658.27-598.38,2660.27-599.32z M2665.09-632.42c-0.89-0.86-1.98-1.29-3.28-1.29c-1.34,0-2.44,0.43-3.31,1.29
					c-0.87,0.87-1.3,1.93-1.3,3.18c0,1.2,0.43,2.23,1.3,3.09c0.87,0.87,1.97,1.3,3.31,1.3c1.3,0,2.39-0.43,3.28-1.3
					c0.89-0.86,1.33-1.89,1.33-3.09C2666.42-630.49,2665.98-631.55,2665.09-632.42z M2676.83-632.38c-0.89-0.84-2-1.26-3.35-1.26
					c-1.25,0-2.32,0.42-3.2,1.26c-0.89,0.84-1.34,1.89-1.34,3.14c0,1.2,0.45,2.23,1.34,3.09c0.88,0.87,1.95,1.3,3.2,1.3
					c1.35,0,2.46-0.43,3.35-1.3c0.89-0.86,1.33-1.89,1.33-3.09C2678.16-630.49,2677.72-631.54,2676.83-632.38z M2683.57-579.84
					v-36.51h-8.07v36.01c0,1.71,0.18,3.16,0.53,4.37c0.12,0.42,0.27,0.82,0.44,1.18c0.65,1.39,1.66,2.4,3.02,3.02
					c1.37,0.62,3.11,0.94,5.23,0.94h7.2v-9.01H2683.57z"/>
				<path class="st2" d="M2693.47-578.68c-0.46-0.77-0.97-1.16-1.55-1.16c-0.53,0-1.01,0.39-1.44,1.16
					c-0.43,0.77-0.65,1.94-0.65,3.53c0,1.44,0.22,2.52,0.65,3.24c0.43,0.72,0.91,1.08,1.44,1.08c0.58,0,1.09-0.36,1.55-1.08
					c0.46-0.72,0.68-1.8,0.68-3.24C2694.15-576.74,2693.93-577.91,2693.47-578.68z M2691.92-579.84v9.01h110.81v-9.01H2691.92z"/>
				<path class="st2" d="M2804.28-578.68c-0.46-0.77-0.97-1.16-1.55-1.16c-0.53,0-1.01,0.39-1.44,1.16
					c-0.43,0.77-0.65,1.94-0.65,3.53c0,1.44,0.22,2.52,0.65,3.24c0.43,0.72,0.91,1.08,1.44,1.08c0.58,0,1.09-0.36,1.55-1.08
					c0.45-0.72,0.68-1.8,0.68-3.24C2804.96-576.74,2804.73-577.91,2804.28-578.68z M2802.73-579.84v9.01h26.87v-9.01H2802.73z"/>
				<path class="st2" d="M2831.14-578.68c-0.45-0.77-0.97-1.16-1.54-1.16c-0.53,0-1.01,0.39-1.45,1.16
					c-0.43,0.77-0.64,1.94-0.64,3.53c0,1.44,0.21,2.52,0.64,3.24c0.44,0.72,0.92,1.08,1.45,1.08c0.57,0,1.09-0.36,1.54-1.08
					c0.46-0.72,0.69-1.8,0.69-3.24C2831.83-576.74,2831.6-577.91,2831.14-578.68z M2855.52-579.84c-2.4,0-4.4-0.8-6.01-2.41
					s-2.42-4.07-2.42-7.38v-15.56h-8.13v15.99c0,3.02-0.69,5.34-2.06,6.95c-1.36,1.61-3.46,2.41-6.3,2.41h-1v9.01h0.86
					c3.07,0,5.7-0.75,7.88-2.24c2.19-1.48,3.79-3.6,4.79-6.33c1.16,2.78,2.8,4.91,4.94,6.37c2.13,1.46,4.65,2.2,7.53,2.2h1v-9.01
					H2855.52z M2846.48-621.07c-0.93-0.89-2.1-1.33-3.49-1.33s-2.56,0.44-3.49,1.33c-0.94,0.89-1.41,1.98-1.41,3.28
					c0,1.29,0.47,2.4,1.41,3.31c0.93,0.91,2.1,1.37,3.49,1.37s2.56-0.46,3.49-1.37c0.94-0.91,1.41-2.02,1.41-3.31
					C2847.89-619.09,2847.42-620.18,2846.48-621.07z"/>
				<path class="st2" d="M2858.15-578.68c-0.45-0.77-0.97-1.16-1.55-1.16c-0.52,0-1,0.39-1.44,1.16c-0.43,0.77-0.64,1.94-0.64,3.53
					c0,1.44,0.21,2.52,0.64,3.24c0.44,0.72,0.92,1.08,1.44,1.08c0.58,0,1.1-0.36,1.55-1.08c0.46-0.72,0.69-1.8,0.69-3.24
					C2858.84-576.74,2858.61-577.91,2858.15-578.68z M2896.43-579.84v-22.47h-8.06v22.47h-15.13v-22.47h-8.07v22.47h-8.57v9.01
					h44.16v-9.01H2896.43z M2889.27-618.37c-0.89-0.86-1.98-1.3-3.28-1.3c-1.34,0-2.45,0.44-3.31,1.3c-0.87,0.86-1.3,1.92-1.3,3.17
					c0,1.2,0.43,2.23,1.3,3.09c0.86,0.87,1.97,1.3,3.31,1.3c1.3,0,2.39-0.43,3.28-1.3c0.89-0.86,1.33-1.89,1.33-3.09
					C2890.6-616.45,2890.16-617.51,2889.27-618.37z M2895.06-628.6c-0.86-0.86-1.94-1.29-3.24-1.29c-1.24,0-2.31,0.43-3.2,1.29
					c-0.89,0.87-1.33,1.88-1.33,3.03c0,1.2,0.44,2.22,1.33,3.06c0.89,0.84,1.96,1.26,3.2,1.26c1.25,0,2.32-0.42,3.21-1.26
					c0.89-0.84,1.33-1.86,1.33-3.06C2896.36-626.72,2895.93-627.73,2895.06-628.6z M2901.01-618.37c-0.89-0.86-2.01-1.3-3.35-1.3
					c-1.25,0-2.32,0.44-3.21,1.3c-0.89,0.86-1.33,1.92-1.33,3.17c0,1.2,0.44,2.23,1.33,3.09c0.89,0.87,1.96,1.3,3.21,1.3
					c1.34,0,2.46-0.43,3.35-1.3c0.89-0.86,1.33-1.89,1.33-3.09C2902.34-616.45,2901.9-617.51,2901.01-618.37z M2902.31-578.68
					c-0.46-0.77-0.98-1.16-1.55-1.16c-0.53,0-1.01,0.39-1.44,1.16c-0.43,0.77-0.65,1.94-0.65,3.53c0,1.44,0.22,2.52,0.65,3.24
					c0.43,0.72,0.91,1.08,1.44,1.08c0.57,0,1.09-0.36,1.55-1.08c0.45-0.72,0.68-1.8,0.68-3.24
					C2902.99-576.74,2902.76-577.91,2902.31-578.68z M2910.77-608.86v19.66c0,3.02-0.85,5.34-2.56,6.95
					c-1.7,1.61-4.04,2.41-7.02,2.41h-0.43v9.01h0.43c3.12,0,6.02-0.69,8.71-2.06c2.69-1.36,4.85-3.37,6.48-6.01
					c1.64-2.64,2.45-5.88,2.45-9.72v-20.24H2910.77z"/>
			</g>
		</g>
		<g>
			<g>
				<path class="st2" d="M2677.86-522.61c-1.1-1.72-2.6-3.1-4.5-4.14c-1.9-1.04-4.09-1.82-6.58-2.35l-4.2-0.96
					c-2.28-0.56-4.11-1.29-5.47-2.19c-1.36-0.9-2.04-2.25-2.04-4.05c0-1.85,0.64-3.31,1.92-4.39c1.28-1.08,3.13-1.62,5.53-1.62
					c2.48,0,4.44,0.72,5.89,2.16c1.44,1.44,2.28,3.39,2.52,5.83h7.5c-0.2-2.92-0.95-5.45-2.25-7.57s-3.1-3.77-5.4-4.95
					c-2.3-1.18-5-1.77-8.08-1.77c-3.24,0-6.01,0.57-8.29,1.71s-4.02,2.67-5.22,4.59c-1.2,1.92-1.81,4.04-1.81,6.37
					c0,2.56,0.52,4.67,1.54,6.33c1.02,1.67,2.49,3,4.41,4c1.92,1,4.16,1.8,6.73,2.4l4.08,0.96c2.68,0.6,4.65,1.4,5.89,2.4
					s1.86,2.46,1.86,4.38c0,2.17-0.73,3.84-2.19,5.02c-1.46,1.18-3.48,1.77-6.04,1.77c-1.68,0-3.24-0.3-4.68-0.9
					c-1.45-0.6-2.64-1.56-3.58-2.88c-0.94-1.32-1.51-3.03-1.71-5.11h-7.51c0.44,3.57,1.47,6.47,3.1,8.71
					c1.62,2.24,3.69,3.89,6.21,4.93c2.52,1.04,5.27,1.56,8.23,1.56c3.2,0,5.99-0.57,8.35-1.71c2.36-1.14,4.19-2.75,5.49-4.81
					c1.3-2.06,1.96-4.43,1.96-7.12C2679.52-518.69,2678.96-520.89,2677.86-522.61z"/>
				<path class="st2" d="M2687.38-548.01v45.04h7.21v-45.04H2687.38z M2690.15-529.82v6.73h25.58v-6.73H2690.15z M2711.28-548.01
					v45.04h7.21v-45.04H2711.28z"/>
				<path class="st2" d="M2748.58-548.01h-12.31l-11.9,45.04h7.51l3.72-14.96l1.56-6.3l4.26-17.12h1.84l4.38,17.12l1.61,6.3
					l3.83,14.96h7.39L2748.58-548.01z M2731.82-524.23v6.3h19.52v-6.3H2731.82z"/>
				<path class="st2" d="M2791.46-548.01v36.15h-1.61l-11.91-36.15h-11.59v45.04h6.79v-36.16h1.56l12.07,36.16h11.47v-45.04H2791.46
					z"/>
				<path class="st2" d="M2833.14-548.01v36.15h-1.62l-11.9-36.15h-11.59v45.04h6.79v-36.16h1.56l12.07,36.16h11.47v-45.04H2833.14z
					"/>
				<path class="st2" d="M2869.95-548.01h-12.32l-11.89,45.04h7.51l3.72-14.96l1.56-6.3l4.26-17.12h1.84l4.38,17.12l1.61,6.3
					l3.83,14.96h7.39L2869.95-548.01z M2853.19-524.23v6.3h19.52v-6.3H2853.19z"/>
				<path class="st2" d="M2887.72-548.01v45.04h7.21v-45.04H2887.72z M2890.49-529.82v6.73h25.58v-6.73H2890.49z M2911.62-548.01
					v45.04h7.21v-45.04H2911.62z"/>
			</g>
		</g>
	</g>
	<g>
		<g>
			<g>
				<path class="st2" d="M3153.66-561.91c-0.97,13.13-6.7,25.51-16.12,34.86c-0.84,0.83-1.7,1.63-2.58,2.4
					c-0.23,0.2-0.45,0.39-0.68,0.58c-2.87,2.44-5.95,4.55-9.2,6.31c-0.22,0.12-0.46,0.18-0.69,0.19c-0.27,0.03-0.54-0.02-0.8-0.13
					c-0.53-0.22-0.91-0.67-1.06-1.22c-1.13-4.09-2.79-8.01-4.92-11.67c-0.52-0.89-0.21-2.02,0.7-2.55c2.72-1.62,5.27-3.6,7.59-5.93
					c0.12-0.12,0.24-0.24,0.36-0.37c0.12-0.11,0.23-0.22,0.33-0.34c14.22-14.95,13.99-38.67-0.69-53.35
					c-0.94-0.94-1.92-1.82-2.94-2.65c-0.09-0.08-0.19-0.16-0.29-0.23c-4.35-3.48-9.38-5.94-14.76-7.22l-1.27-0.31l-0.17-0.04
					l-0.09,0.3l-0.31,1.11c-1.64,5.34-4.22,10.31-7.71,14.79c-0.12,0.15-0.25,0.27-0.4,0.37c-0.24,0.16-0.52,0.27-0.83,0.29
					c-0.5,0.04-1-0.12-1.37-0.46l-9.82-8.79c-0.6-0.54-0.75-1.4-0.39-2.13c0.04-0.11,0.11-0.22,0.18-0.32
					c0.85-1.16,1.6-2.39,2.26-3.65c1.8-3.42,2.91-7.17,3.27-11.01c0.01-0.09,0.02-0.18,0.03-0.27c0.11-1.03,0.13-1.95,0.13-2.71
					v-0.09c0-0.49-0.01-0.97-0.04-1.46c-0.04-0.81-0.11-1.62-0.21-2.41c-1.55-11.75-9.89-21.4-20.92-24.85
					c-0.46-0.14-0.91-0.27-1.38-0.39c-0.48-0.13-0.96-0.24-1.45-0.34c-1.7-0.35-3.45-0.56-5.25-0.62c-0.17-0.01-0.35-0.01-0.52-0.01
					h-0.35c-9.01,0-17.47,3.97-23.21,10.91c-0.56,0.68-1.53,0.87-2.28,0.44c-3.81-2.19-7.9-3.84-12.16-4.95
					c-0.57-0.14-1.01-0.54-1.22-1.09c-0.07-0.18-0.11-0.38-0.11-0.56c-0.02-0.18,0-0.36,0.05-0.53c0.05-0.21,0.14-0.4,0.27-0.58
					c8.75-12.76,23.2-20.37,38.66-20.37h0.35c0.26,0,0.53,0,0.79,0.01c5.25,0.13,10.31,1.13,15.01,2.86
					c1.08,0.38,2.13,0.82,3.17,1.29c1.38,0.62,2.73,1.31,4.03,2.07c0.32,0.18,0.65,0.38,0.97,0.57l0.96,0.6
					c0.31,0.2,0.63,0.41,0.94,0.62c0.01,0,0.01,0.01,0.02,0.01c0.58,0.4,1.15,0.8,1.71,1.21c0.04,0.03,0.07,0.06,0.1,0.08
					c0.6,0.45,1.19,0.92,1.77,1.39c0.29,0.24,0.57,0.48,0.86,0.73c0.56,0.49,1.12,0.99,1.66,1.51c0.27,0.25,0.54,0.52,0.8,0.78
					c1.37,1.37,2.65,2.82,3.83,4.34c0.39,0.5,0.77,1.01,1.15,1.53c0.22,0.31,0.44,0.62,0.64,0.93c0.2,0.29,0.39,0.58,0.58,0.87
					c0.57,0.89,1.11,1.79,1.63,2.72c0.17,0.31,0.34,0.62,0.5,0.93c2.63,5,4.39,10.56,5.06,16.47l0.11,0.95l0.02,0.2l0.24,0.04
					l0.91,0.17c5.37,0.98,10.55,2.77,15.4,5.33c1.88,1,3.71,2.11,5.46,3.32c0.04,0.02,0.07,0.05,0.11,0.07
					c2.72,1.89,5.27,4.03,7.62,6.39C3149.19-593.48,3154.86-578.19,3153.66-561.91z"/>
				<path class="st2" d="M3087.73-463.29c-14.22,8.28-32.67,8.34-46.98,0.14c-13.22-7.59-22.22-21.82-23.47-37.15
					c-0.04-0.49,0.13-0.97,0.46-1.34c0.35-0.37,0.82-0.58,1.33-0.58h13.22c0.9,0,1.67,0.7,1.78,1.62
					c1.59,12.91,11.86,24.03,24.42,26.43c13.8,2.65,28.59-5.49,33.71-18.51c2.41-6.13,2.43-13.04,0.52-19.37
					c-2.1-6.99-6.56-13.28-12.75-17.04c-7.86-4.77-17.32-5.52-24.87-5.53h-1.03c-5.34,0.02-10.74,0.33-15.98,0.63l-0.39,0.02
					c-5.69,0.32-11.56,0.65-17.31,0.59c-13.15-0.13-23.57-2.44-31.86-7.04c-9.72-5.41-17.33-14.66-20.89-25.39
					c-1.62-4.85-2.41-10-2.36-15.3c0.14-13.69,6.61-26.7,17.74-35.73c9.55-7.75,21.32-11.49,32.94-10.61
					c1.79,0.13,3.58,0.37,5.35,0.73c3.75,0.75,7.37,2.02,10.78,3.73c10.33,5.13,18.78,14.22,23.3,24.92
					c1.6,3.78,2.71,7.77,3.23,11.86c0.09,0.67,0.17,1.35,0.22,2.02c0.03,0.5-0.14,0.97-0.47,1.34c-0.34,0.37-0.83,0.59-1.33,0.59
					l-9.55-0.01l-3.61-0.01c-0.91,0-1.67-0.7-1.78-1.63c-1.25-10.89-8.51-20.58-18.51-24.71c-2.78-1.14-5.71-1.82-8.69-2.06
					c-8.82-0.71-17.96,2.41-24.21,8.72c-8.39,8.44-11.02,21.99-6.4,32.95c2.53,6.04,7,11.05,12.58,14.11
					c4.56,2.52,9.96,3.87,17.48,4.43c8.06,0.58,16.18,0.17,24.03-0.22c3.1-0.16,5.98-0.3,8.8-0.39c1.23-0.04,2.45-0.07,3.67-0.09
					c5.31-0.1,10.04,0.08,14.34,0.55c4.16,0.45,7.92,1.17,11.44,2.17c3.17,0.88,6.19,2.05,8.97,3.44c7.32,3.67,13.5,9.46,17.96,16.4
					c0.05,0.08,0.11,0.17,0.16,0.25c3.05,4.81,5.25,10.16,6.41,15.72c0.53,2.58,0.85,5.19,0.91,7.82
					C3111.44-488.3,3102.08-471.61,3087.73-463.29z"/>
			</g>
		</g>
	</g>
</g>
<rect x="3880" y="-1100" class="st0" width="1920" height="1080"/>
<g>
	<g>
		<g>
			<g>
				<path class="st2" d="M4976.67-562.77c-1.41,19.07-9.73,37.05-23.41,50.62c-1.22,1.21-2.47,2.37-3.75,3.49
					c-0.33,0.29-0.65,0.57-0.99,0.84c-4.17,3.54-8.64,6.61-13.36,9.16c-0.32,0.17-0.67,0.26-1,0.28c-0.39,0.04-0.78-0.03-1.16-0.19
					c-0.77-0.32-1.32-0.97-1.54-1.77c-1.64-5.94-4.05-11.63-7.15-16.95c-0.75-1.29-0.3-2.93,1.02-3.7
					c3.95-2.35,7.65-5.23,11.02-8.61c0.17-0.17,0.35-0.35,0.52-0.54c0.17-0.16,0.33-0.32,0.48-0.49c20.65-21.71,20.32-56.16-1-77.48
					c-1.37-1.37-2.79-2.64-4.27-3.85c-0.13-0.12-0.28-0.23-0.42-0.33c-6.32-5.05-13.62-8.63-21.43-10.48l-1.84-0.45l-0.25-0.06
					l-0.13,0.44l-0.45,1.61c-2.38,7.75-6.13,14.97-11.2,21.48c-0.17,0.22-0.36,0.39-0.58,0.54c-0.35,0.23-0.76,0.39-1.21,0.42
					c-0.73,0.06-1.45-0.17-1.99-0.67l-14.26-12.76c-0.87-0.78-1.09-2.03-0.57-3.09c0.06-0.16,0.16-0.32,0.26-0.46
					c1.23-1.68,2.32-3.47,3.28-5.3c2.61-4.97,4.23-10.41,4.75-15.99c0.01-0.13,0.03-0.26,0.04-0.39c0.16-1.5,0.19-2.83,0.19-3.94
					v-0.13c0-0.71-0.01-1.41-0.06-2.12c-0.06-1.18-0.16-2.35-0.31-3.5c-2.25-17.06-14.36-31.08-30.38-36.09
					c-0.67-0.2-1.32-0.39-2-0.57c-0.7-0.19-1.39-0.35-2.11-0.49c-2.47-0.51-5.01-0.81-7.62-0.9c-0.25-0.01-0.51-0.01-0.75-0.01
					h-0.51c-13.08,0-25.37,5.77-33.71,15.84c-0.81,0.99-2.22,1.26-3.31,0.64c-5.53-3.18-11.47-5.58-17.66-7.19
					c-0.83-0.2-1.47-0.78-1.77-1.58c-0.1-0.26-0.16-0.55-0.16-0.81c-0.03-0.26,0-0.52,0.07-0.77c0.07-0.3,0.2-0.58,0.39-0.84
					c12.71-18.53,33.69-29.58,56.14-29.58h0.51c0.38,0,0.77,0,1.15,0.01c7.62,0.19,14.97,1.64,21.8,4.15
					c1.57,0.55,3.09,1.19,4.6,1.87c2,0.9,3.96,1.9,5.85,3.01c0.46,0.26,0.94,0.55,1.41,0.83l1.39,0.87c0.45,0.29,0.92,0.6,1.37,0.9
					c0.01,0,0.01,0.01,0.03,0.01c0.84,0.58,1.67,1.16,2.48,1.76c0.06,0.04,0.1,0.09,0.15,0.12c0.87,0.65,1.73,1.34,2.57,2.02
					c0.42,0.35,0.83,0.7,1.25,1.06c0.81,0.71,1.63,1.44,2.41,2.19c0.39,0.36,0.78,0.76,1.16,1.13c1.99,1.99,3.85,4.1,5.56,6.3
					c0.57,0.73,1.12,1.47,1.67,2.22c0.32,0.45,0.64,0.9,0.93,1.35c0.29,0.42,0.57,0.84,0.84,1.26c0.83,1.29,1.61,2.6,2.37,3.95
					c0.25,0.45,0.49,0.9,0.73,1.35c3.82,7.26,6.38,15.34,7.35,23.92l0.16,1.38l0.03,0.29l0.35,0.06l1.32,0.25
					c7.8,1.42,15.32,4.02,22.36,7.74c2.73,1.45,5.39,3.06,7.93,4.82c0.06,0.03,0.1,0.07,0.16,0.1c3.95,2.74,7.65,5.85,11.07,9.28
					C4970.18-608.62,4978.41-586.42,4976.67-562.77z"/>
				<path class="st2" d="M4880.93-419.56c-20.65,12.02-47.44,12.11-68.22,0.2c-19.2-11.02-32.27-31.69-34.08-53.95
					c-0.06-0.71,0.19-1.41,0.67-1.95c0.51-0.54,1.19-0.84,1.93-0.84h19.2c1.31,0,2.42,1.02,2.58,2.35
					c2.31,18.75,17.22,34.9,35.46,38.38c20.04,3.85,41.52-7.97,48.95-26.88c3.5-8.9,3.53-18.94,0.75-28.13
					c-3.05-10.15-9.53-19.29-18.52-24.75c-11.41-6.93-25.15-8.02-36.12-8.03h-1.5c-7.75,0.03-15.6,0.48-23.21,0.91l-0.57,0.03
					c-8.26,0.46-16.79,0.94-25.14,0.86c-19.1-0.19-34.23-3.54-46.27-10.22c-14.12-7.86-25.17-21.29-30.34-36.87
					c-2.35-7.04-3.5-14.52-3.43-22.22c0.2-19.88,9.6-38.77,25.76-51.89c13.87-11.25,30.96-16.69,47.84-15.41
					c2.6,0.19,5.2,0.54,7.77,1.06c5.45,1.09,10.7,2.93,15.65,5.42c15,7.45,27.27,20.65,33.84,36.19c2.32,5.49,3.94,11.28,4.69,17.22
					c0.13,0.97,0.25,1.96,0.32,2.93c0.04,0.73-0.2,1.41-0.68,1.95c-0.49,0.54-1.21,0.86-1.93,0.86l-13.87-0.01l-5.24-0.01
					c-1.32,0-2.43-1.02-2.58-2.37c-1.82-15.81-12.36-29.89-26.88-35.88c-4.04-1.66-8.29-2.64-12.62-2.99
					c-12.81-1.03-26.08,3.5-35.16,12.66c-12.18,12.26-16,31.93-9.29,47.85c3.67,8.77,10.17,16.05,18.27,20.49
					c6.62,3.66,14.46,5.62,25.38,6.43c11.7,0.84,23.5,0.25,34.9-0.32c4.5-0.23,8.68-0.44,12.78-0.57c1.79-0.06,3.56-0.1,5.33-0.13
					c7.71-0.15,14.58,0.12,20.82,0.8c6.04,0.65,11.5,1.7,16.61,3.15c4.6,1.28,8.99,2.98,13.03,5c10.63,5.33,19.6,13.74,26.08,23.82
					c0.07,0.12,0.16,0.25,0.23,0.36c4.43,6.99,7.62,14.75,9.31,22.83c0.77,3.75,1.23,7.54,1.32,11.36
					C4915.36-455.88,4901.77-431.64,4880.93-419.56z"/>
			</g>
		</g>
	</g>
</g>
<g>
	<g>
		<g>
			<g>
				<g>
					<path class="st0" d="M-843.33,537.23c-1.41,19.07-9.73,37.05-23.41,50.62c-1.22,1.21-2.47,2.37-3.75,3.49
						c-0.33,0.29-0.65,0.57-0.99,0.84c-4.17,3.54-8.64,6.61-13.36,9.16c-0.32,0.17-0.67,0.26-1,0.28c-0.39,0.04-0.78-0.03-1.16-0.19
						c-0.77-0.32-1.32-0.97-1.54-1.77c-1.64-5.94-4.05-11.63-7.14-16.95c-0.76-1.29-0.3-2.93,1.02-3.7
						c3.95-2.35,7.65-5.23,11.02-8.61c0.17-0.17,0.35-0.35,0.52-0.54c0.17-0.16,0.33-0.32,0.48-0.49
						c20.65-21.71,20.32-56.16-1-77.48c-1.37-1.37-2.79-2.64-4.27-3.85c-0.13-0.12-0.28-0.23-0.42-0.33
						c-6.32-5.05-13.62-8.63-21.43-10.48l-1.84-0.45l-0.25-0.06l-0.13,0.44l-0.45,1.61c-2.38,7.75-6.13,14.97-11.2,21.48
						c-0.17,0.22-0.36,0.39-0.58,0.54c-0.35,0.23-0.76,0.39-1.21,0.42c-0.73,0.06-1.45-0.17-1.99-0.67l-14.26-12.76
						c-0.87-0.78-1.09-2.03-0.57-3.09c0.06-0.16,0.16-0.32,0.26-0.46c1.23-1.68,2.32-3.47,3.28-5.3c2.61-4.97,4.23-10.41,4.75-15.99
						c0.01-0.13,0.03-0.26,0.04-0.39c0.16-1.5,0.19-2.83,0.19-3.94v-0.13c0-0.71-0.01-1.41-0.06-2.12c-0.06-1.18-0.16-2.35-0.31-3.5
						c-2.25-17.06-14.36-31.08-30.38-36.09c-0.67-0.2-1.32-0.39-2-0.57c-0.7-0.19-1.39-0.35-2.11-0.49
						c-2.47-0.51-5.01-0.81-7.62-0.9c-0.25-0.01-0.51-0.01-0.76-0.01h-0.51c-13.08,0-25.37,5.77-33.71,15.84
						c-0.81,0.99-2.22,1.26-3.31,0.64c-5.53-3.18-11.47-5.58-17.66-7.19c-0.83-0.2-1.47-0.78-1.77-1.58
						c-0.1-0.26-0.16-0.55-0.16-0.81c-0.03-0.26,0-0.52,0.07-0.77c0.07-0.3,0.2-0.58,0.39-0.84c12.71-18.53,33.69-29.58,56.14-29.58
						h0.51c0.38,0,0.77,0,1.15,0.01c7.62,0.19,14.97,1.64,21.8,4.15c1.57,0.55,3.09,1.19,4.6,1.87c2,0.9,3.96,1.9,5.85,3.01
						c0.46,0.26,0.94,0.55,1.41,0.83l1.39,0.87c0.45,0.29,0.91,0.6,1.36,0.9c0.01,0,0.01,0.01,0.03,0.01
						c0.84,0.58,1.67,1.16,2.48,1.76c0.06,0.04,0.1,0.09,0.15,0.12c0.87,0.65,1.73,1.34,2.57,2.02c0.42,0.35,0.83,0.7,1.25,1.06
						c0.81,0.71,1.63,1.44,2.41,2.19c0.39,0.36,0.78,0.76,1.16,1.13c1.99,1.99,3.85,4.1,5.56,6.3c0.57,0.73,1.12,1.47,1.67,2.22
						c0.32,0.45,0.64,0.9,0.93,1.35c0.29,0.42,0.57,0.84,0.84,1.26c0.83,1.29,1.61,2.6,2.37,3.95c0.25,0.45,0.49,0.9,0.73,1.35
						c3.82,7.26,6.38,15.34,7.35,23.92l0.16,1.38l0.03,0.29l0.35,0.06l1.32,0.25c7.8,1.42,15.32,4.02,22.36,7.74
						c2.73,1.45,5.39,3.06,7.93,4.82c0.06,0.03,0.1,0.07,0.16,0.1c3.95,2.74,7.65,5.85,11.07,9.28
						C-849.82,491.38-841.59,513.58-843.33,537.23z"/>
					<path class="st0" d="M-939.07,680.44c-20.65,12.02-47.44,12.11-68.22,0.2c-19.2-11.02-32.27-31.69-34.08-53.95
						c-0.06-0.71,0.19-1.41,0.67-1.95c0.51-0.54,1.19-0.84,1.93-0.84h19.2c1.31,0,2.43,1.02,2.59,2.35
						c2.31,18.75,17.22,34.9,35.46,38.38c20.04,3.85,41.52-7.97,48.95-26.88c3.5-8.9,3.53-18.94,0.76-28.13
						c-3.05-10.15-9.53-19.29-18.52-24.75c-11.41-6.93-25.15-8.02-36.12-8.03h-1.5c-7.75,0.03-15.6,0.48-23.21,0.91l-0.57,0.03
						c-8.26,0.46-16.79,0.94-25.14,0.86c-19.1-0.19-34.23-3.54-46.27-10.22c-14.12-7.86-25.17-21.29-30.34-36.87
						c-2.35-7.04-3.5-14.52-3.43-22.22c0.2-19.88,9.6-38.77,25.76-51.89c13.87-11.25,30.96-16.69,47.84-15.41
						c2.6,0.19,5.2,0.54,7.77,1.06c5.45,1.09,10.7,2.93,15.65,5.42c15,7.45,27.27,20.65,33.84,36.19
						c2.32,5.49,3.94,11.28,4.69,17.22c0.13,0.97,0.25,1.96,0.32,2.93c0.04,0.73-0.2,1.41-0.68,1.95c-0.49,0.54-1.21,0.86-1.93,0.86
						l-13.87-0.01l-5.24-0.01c-1.32,0-2.43-1.02-2.59-2.37c-1.82-15.81-12.36-29.89-26.88-35.88c-4.04-1.66-8.29-2.64-12.62-2.99
						c-12.81-1.03-26.08,3.5-35.16,12.66c-12.18,12.26-16,31.93-9.29,47.85c3.67,8.77,10.17,16.05,18.27,20.49
						c6.62,3.66,14.46,5.62,25.38,6.43c11.7,0.84,23.5,0.25,34.9-0.32c4.5-0.23,8.68-0.44,12.78-0.57c1.79-0.06,3.56-0.1,5.33-0.13
						c7.71-0.15,14.58,0.12,20.82,0.8c6.04,0.65,11.5,1.7,16.61,3.15c4.6,1.28,8.99,2.98,13.03,5c10.63,5.33,19.6,13.74,26.08,23.82
						c0.07,0.12,0.16,0.25,0.23,0.36c4.43,6.99,7.62,14.75,9.31,22.83c0.77,3.75,1.23,7.54,1.32,11.36
						C-904.64,644.12-918.23,668.36-939.07,680.44z"/>
				</g>
			</g>
		</g>
	</g>
</g>
<rect class="st1" width="1920" height="1080"/>
<g>
	<g>
		<g>
			<g>
				<path class="st2" d="M1096.67,537.23c-1.41,19.07-9.73,37.05-23.41,50.62c-1.22,1.21-2.47,2.37-3.75,3.49
					c-0.33,0.29-0.65,0.57-0.99,0.84c-4.17,3.54-8.64,6.61-13.36,9.16c-0.32,0.17-0.67,0.26-1,0.28c-0.39,0.04-0.78-0.03-1.16-0.19
					c-0.77-0.32-1.32-0.97-1.54-1.77c-1.64-5.94-4.05-11.63-7.14-16.95c-0.76-1.29-0.3-2.93,1.02-3.7
					c3.95-2.35,7.65-5.23,11.02-8.61c0.17-0.17,0.35-0.35,0.52-0.54c0.17-0.16,0.33-0.32,0.48-0.49c20.65-21.71,20.32-56.16-1-77.48
					c-1.37-1.37-2.79-2.64-4.27-3.85c-0.13-0.12-0.28-0.23-0.42-0.33c-6.32-5.05-13.62-8.63-21.43-10.48l-1.84-0.45l-0.25-0.06
					l-0.13,0.44l-0.45,1.61c-2.38,7.75-6.13,14.97-11.2,21.48c-0.17,0.22-0.36,0.39-0.58,0.54c-0.35,0.23-0.76,0.39-1.21,0.42
					c-0.73,0.06-1.45-0.17-1.99-0.67l-14.26-12.76c-0.87-0.78-1.09-2.03-0.57-3.09c0.06-0.16,0.16-0.32,0.26-0.46
					c1.23-1.68,2.32-3.47,3.28-5.3c2.61-4.97,4.23-10.41,4.75-15.99c0.01-0.13,0.03-0.26,0.04-0.39c0.16-1.5,0.19-2.83,0.19-3.94
					v-0.13c0-0.71-0.01-1.41-0.06-2.12c-0.06-1.18-0.16-2.35-0.31-3.5c-2.25-17.06-14.36-31.08-30.38-36.09
					c-0.67-0.2-1.32-0.39-2-0.57c-0.7-0.19-1.39-0.35-2.11-0.49c-2.47-0.51-5.01-0.81-7.62-0.9c-0.25-0.01-0.51-0.01-0.76-0.01
					h-0.51c-13.08,0-25.37,5.77-33.71,15.84c-0.81,0.99-2.22,1.26-3.31,0.64c-5.53-3.18-11.47-5.58-17.66-7.19
					c-0.83-0.2-1.47-0.78-1.77-1.58c-0.1-0.26-0.16-0.55-0.16-0.81c-0.03-0.26,0-0.52,0.07-0.77c0.07-0.3,0.2-0.58,0.39-0.84
					c12.71-18.53,33.69-29.58,56.14-29.58h0.51c0.38,0,0.77,0,1.15,0.01c7.62,0.19,14.97,1.64,21.8,4.15
					c1.57,0.55,3.09,1.19,4.6,1.87c2,0.9,3.96,1.9,5.85,3.01c0.46,0.26,0.94,0.55,1.41,0.83l1.39,0.87c0.45,0.29,0.91,0.6,1.36,0.9
					c0.01,0,0.01,0.01,0.03,0.01c0.84,0.58,1.67,1.16,2.48,1.76c0.06,0.04,0.1,0.09,0.15,0.12c0.87,0.65,1.73,1.34,2.57,2.02
					c0.42,0.35,0.83,0.7,1.25,1.06c0.81,0.71,1.63,1.44,2.41,2.19c0.39,0.36,0.78,0.76,1.16,1.13c1.99,1.99,3.85,4.1,5.56,6.3
					c0.57,0.73,1.12,1.47,1.67,2.22c0.32,0.45,0.64,0.9,0.93,1.35c0.29,0.42,0.57,0.84,0.84,1.26c0.83,1.29,1.61,2.6,2.37,3.95
					c0.25,0.45,0.49,0.9,0.73,1.35c3.82,7.26,6.38,15.34,7.35,23.92l0.16,1.38l0.03,0.29l0.35,0.06l1.32,0.25
					c7.8,1.42,15.32,4.02,22.36,7.74c2.73,1.45,5.39,3.06,7.93,4.82c0.06,0.03,0.1,0.07,0.16,0.1c3.95,2.74,7.65,5.85,11.07,9.28
					C1090.18,491.38,1098.41,513.58,1096.67,537.23z"/>
				<path class="st2" d="M1000.93,680.44c-20.65,12.02-47.44,12.11-68.22,0.2c-19.2-11.02-32.27-31.69-34.08-53.95
					c-0.06-0.71,0.19-1.41,0.67-1.95c0.51-0.54,1.19-0.84,1.93-0.84h19.2c1.31,0,2.43,1.02,2.59,2.35
					c2.31,18.75,17.22,34.9,35.46,38.38c20.04,3.85,41.52-7.97,48.95-26.88c3.5-8.9,3.53-18.94,0.76-28.13
					c-3.05-10.15-9.53-19.29-18.52-24.75c-11.41-6.93-25.15-8.02-36.12-8.03h-1.5c-7.75,0.03-15.6,0.48-23.21,0.91l-0.57,0.03
					c-8.26,0.46-16.79,0.94-25.14,0.86c-19.1-0.19-34.23-3.54-46.27-10.22c-14.12-7.86-25.17-21.29-30.34-36.87
					c-2.35-7.04-3.5-14.52-3.43-22.22c0.2-19.88,9.6-38.77,25.76-51.89c13.87-11.25,30.96-16.69,47.84-15.41
					c2.6,0.19,5.2,0.54,7.77,1.06c5.45,1.09,10.7,2.93,15.65,5.42c15,7.45,27.27,20.65,33.84,36.19c2.32,5.49,3.94,11.28,4.69,17.22
					c0.13,0.97,0.25,1.96,0.32,2.93c0.04,0.73-0.2,1.41-0.68,1.95c-0.49,0.54-1.21,0.86-1.93,0.86l-13.87-0.01l-5.24-0.01
					c-1.32,0-2.43-1.02-2.59-2.37c-1.82-15.81-12.36-29.89-26.88-35.88c-4.04-1.66-8.29-2.64-12.62-2.99
					c-12.81-1.03-26.08,3.5-35.16,12.66c-12.18,12.26-16,31.93-9.29,47.85c3.67,8.77,10.17,16.05,18.27,20.49
					c6.62,3.66,14.46,5.62,25.38,6.43c11.7,0.84,23.5,0.25,34.9-0.32c4.5-0.23,8.68-0.44,12.78-0.57c1.79-0.06,3.56-0.1,5.33-0.13
					c7.71-0.15,14.58,0.12,20.82,0.8c6.04,0.65,11.5,1.7,16.61,3.15c4.6,1.28,8.99,2.98,13.03,5c10.63,5.33,19.6,13.74,26.08,23.82
					c0.07,0.12,0.16,0.25,0.23,0.36c4.43,6.99,7.62,14.75,9.31,22.83c0.77,3.75,1.23,7.54,1.32,11.36
					C1035.36,644.12,1021.77,668.36,1000.93,680.44z"/>
			</g>
		</g>
	</g>
</g>
</svg>
